{
	"asset":{
		"version":"2.0",
		"generator":"Created using the official Cinema 4D glTF Exporter 1.000x284978"
	},
	"scenes":[{
		"nodes":[0,
		1,
		2,
		3,
		4,
		5,
		11]
	}],
	"nodes":[{
		"name":"Blimp",
		"translation":[187.33251953125,
		2230.9375,
		15.540670394897461],
		"rotation":[0.0,
		0.0,
		0.0,
		-1.0],
		"scale":[1.0,
		1.0,
		1.0],
		"mesh":0
	},
	{
		"name":"Support.2",
		"translation":[-498.3390197753906,
		1423.6572265625,
		0.0],
		"rotation":[0.0,
		0.0,
		0.16220466792583466,
		-0.9867571592330933],
		"scale":[1.0,
		1.0,
		1.0],
		"mesh":1
	},
	{
		"name":"Support.1",
		"translation":[610.9035034179688,
		1458.107421875,
		0.0],
		"rotation":[0.0,
		0.0,
		0.0,
		-1.0],
		"scale":[1.0,
		1.0,
		1.0],
		"mesh":2
	},
	{
		"name":"Cube.7",
		"translation":[190.4077911376953,
		2224.658935546875,
		0.0],
		"rotation":[0.0,
		0.0,
		0.0,
		-1.0],
		"scale":[1.0,
		1.0,
		1.0],
		"mesh":3
	},
	{
		"name":"Support",
		"translation":[610.9035034179688,
		1458.107421875,
		0.0],
		"rotation":[0.0,
		0.0,
		0.0,
		-1.0],
		"scale":[1.0,
		1.0,
		1.0],
		"mesh":4
	},
	{
		"name":"Symmetry",
		"children":[6]
	},
	{
		"name":"Jet",
		"translation":[-675.6666870117188,
		376.5455017089844,
		-282.9190979003906],
		"rotation":[0.0,
		0.0,
		0.0,
		-1.0],
		"scale":[1.0,
		1.0,
		1.0],
		"children":[7,
		8,
		9,
		10]
	},
	{
		"name":"Jet-Mat",
		"mesh":5
	},
	{
		"name":"Jet-Mat.1",
		"mesh":6
	},
	{
		"name":"Jet-Mat.1",
		"mesh":7
	},
	{
		"name":"Jet-Mat",
		"mesh":8
	},
	{
		"name":"Ship",
		"translation":[-70.8553466796875,
		985.3067016601563,
		4.171260356903076],
		"rotation":[0.0,
		0.0,
		0.0,
		-1.0],
		"scale":[1.0,
		1.0,
		1.0],
		"children":[12,
		13,
		14,
		15,
		16]
	},
	{
		"name":"Ship-Mat.2",
		"mesh":9
	},
	{
		"name":"Ship-Mat.3",
		"mesh":10
	},
	{
		"name":"Ship-Mat.3",
		"mesh":11
	},
	{
		"name":"Ship-Mat.3",
		"mesh":12
	},
	{
		"name":"Ship-Mat.3",
		"mesh":13
	}],
	"meshes":[{
		"name":"Blimp",
		"primitives":[{
			"attributes":{
				"POSITION":1,
				"NORMAL":2,
				"TEXCOORD_0":3
			},
			"indices":0,
			"material":0
		}]
	},
	{
		"name":"Support.2",
		"primitives":[{
			"attributes":{
				"POSITION":5,
				"NORMAL":6,
				"TEXCOORD_0":7
			},
			"indices":4,
			"material":1
		}]
	},
	{
		"name":"Support.1",
		"primitives":[{
			"attributes":{
				"POSITION":9,
				"NORMAL":10,
				"TEXCOORD_0":11
			},
			"indices":8,
			"material":1
		}]
	},
	{
		"name":"Cube.7",
		"primitives":[{
			"attributes":{
				"POSITION":13,
				"NORMAL":14,
				"TEXCOORD_0":15
			},
			"indices":12,
			"material":0
		}]
	},
	{
		"name":"Support",
		"primitives":[{
			"attributes":{
				"POSITION":17,
				"NORMAL":18,
				"TEXCOORD_0":19
			},
			"indices":16
		}]
	},
	{
		"name":"Jet-Mat",
		"primitives":[{
			"attributes":{
				"POSITION":21,
				"NORMAL":22,
				"TEXCOORD_0":23
			},
			"indices":20,
			"material":1
		}]
	},
	{
		"name":"Jet-Mat.1",
		"primitives":[{
			"attributes":{
				"POSITION":25,
				"NORMAL":26,
				"TEXCOORD_0":27
			},
			"indices":24,
			"material":2
		}]
	},
	{
		"name":"Jet-Mat.1",
		"primitives":[{
			"attributes":{
				"POSITION":29,
				"NORMAL":30,
				"TEXCOORD_0":31
			},
			"indices":28,
			"material":2
		}]
	},
	{
		"name":"Jet-Mat",
		"primitives":[{
			"attributes":{
				"POSITION":33,
				"NORMAL":34,
				"TEXCOORD_0":35
			},
			"indices":32,
			"material":1
		}]
	},
	{
		"name":"Ship-Mat.2",
		"primitives":[{
			"attributes":{
				"POSITION":37,
				"NORMAL":38,
				"TEXCOORD_0":39
			},
			"indices":36,
			"material":3
		}]
	},
	{
		"name":"Ship-Mat.3",
		"primitives":[{
			"attributes":{
				"POSITION":41,
				"NORMAL":42,
				"TEXCOORD_0":43
			},
			"indices":40,
			"material":4
		}]
	},
	{
		"name":"Ship-Mat.3",
		"primitives":[{
			"attributes":{
				"POSITION":45,
				"NORMAL":46,
				"TEXCOORD_0":47
			},
			"indices":44,
			"material":4
		}]
	},
	{
		"name":"Ship-Mat.3",
		"primitives":[{
			"attributes":{
				"POSITION":49,
				"NORMAL":50,
				"TEXCOORD_0":51
			},
			"indices":48,
			"material":4
		}]
	},
	{
		"name":"Ship-Mat.3",
		"primitives":[{
			"attributes":{
				"POSITION":53,
				"NORMAL":54,
				"TEXCOORD_0":55
			},
			"indices":52,
			"material":4
		}]
	}],
	"accessors":[{
		"bufferView":0,
		"type":"SCALAR",
		"componentType":5123,
		"count":3672,
		"byteOffset":0,
		"min":[0],
		"max":[995]
	},
	{
		"bufferView":1,
		"type":"VEC3",
		"componentType":5126,
		"count":996,
		"byteOffset":0,
		"min":[-1064.550048828125,
		-416.1033630371094,
		-342.2742919921875],
		"max":[1064.550048828125,
		416.1033630371094,
		342.2742919921875]
	},
	{
		"bufferView":1,
		"type":"VEC3",
		"componentType":5126,
		"count":996,
		"byteOffset":12,
		"min":[-0.9832740426063538,
		-0.9865116477012634,
		-0.9865115880966187],
		"max":[0.9832740426063538,
		0.9865115880966187,
		0.9865115880966187]
	},
	{
		"bufferView":1,
		"type":"VEC2",
		"componentType":5126,
		"count":996,
		"byteOffset":24,
		"min":[0.0,
		0.0],
		"max":[1.0,
		1.0]
	},
	{
		"bufferView":2,
		"type":"SCALAR",
		"componentType":5123,
		"count":612,
		"byteOffset":0,
		"min":[0],
		"max":[179]
	},
	{
		"bufferView":3,
		"type":"VEC3",
		"componentType":5126,
		"count":180,
		"byteOffset":0,
		"min":[-21.45237159729004,
		-610.1551513671875,
		-27.051389694213868],
		"max":[21.45237159729004,
		610.1551513671875,
		27.051389694213868]
	},
	{
		"bufferView":3,
		"type":"VEC3",
		"componentType":5126,
		"count":180,
		"byteOffset":12,
		"min":[-0.9832740426063538,
		-0.9873343706130981,
		-0.9625023007392883],
		"max":[0.9832740426063538,
		0.9865115284919739,
		0.9625023007392883]
	},
	{
		"bufferView":3,
		"type":"VEC2",
		"componentType":5126,
		"count":180,
		"byteOffset":24,
		"min":[0.0,
		0.0],
		"max":[1.0,
		1.0]
	},
	{
		"bufferView":4,
		"type":"SCALAR",
		"componentType":5123,
		"count":612,
		"byteOffset":0,
		"min":[0],
		"max":[179]
	},
	{
		"bufferView":5,
		"type":"VEC3",
		"componentType":5126,
		"count":180,
		"byteOffset":0,
		"min":[-21.45237159729004,
		-610.1551513671875,
		-27.051389694213868],
		"max":[21.45237159729004,
		610.1551513671875,
		27.051389694213868]
	},
	{
		"bufferView":5,
		"type":"VEC3",
		"componentType":5126,
		"count":180,
		"byteOffset":12,
		"min":[-0.9832740426063538,
		-0.9873343706130981,
		-0.9625023007392883],
		"max":[0.9832740426063538,
		0.9865115284919739,
		0.9625023007392883]
	},
	{
		"bufferView":5,
		"type":"VEC2",
		"componentType":5126,
		"count":180,
		"byteOffset":24,
		"min":[0.0,
		0.0],
		"max":[1.0,
		1.0]
	},
	{
		"bufferView":6,
		"type":"SCALAR",
		"componentType":5123,
		"count":612,
		"byteOffset":0,
		"min":[0],
		"max":[165]
	},
	{
		"bufferView":7,
		"type":"VEC3",
		"componentType":5126,
		"count":166,
		"byteOffset":0,
		"min":[-978.6890869140625,
		-344.1968994140625,
		-235.43443298339845],
		"max":[978.6890869140625,
		344.1968994140625,
		235.43443298339845]
	},
	{
		"bufferView":7,
		"type":"VEC3",
		"componentType":5126,
		"count":166,
		"byteOffset":12,
		"min":[-0.983273983001709,
		-0.9865115880966187,
		-0.983273983001709],
		"max":[0.983273983001709,
		0.9865115880966187,
		0.983273983001709]
	},
	{
		"bufferView":7,
		"type":"VEC2",
		"componentType":5126,
		"count":166,
		"byteOffset":24,
		"min":[0.0,
		0.0],
		"max":[1.0,
		1.0]
	},
	{
		"bufferView":8,
		"type":"SCALAR",
		"componentType":5123,
		"count":612,
		"byteOffset":0,
		"min":[0],
		"max":[179]
	},
	{
		"bufferView":9,
		"type":"VEC3",
		"componentType":5126,
		"count":180,
		"byteOffset":0,
		"min":[-21.45237159729004,
		-610.1551513671875,
		-27.051389694213868],
		"max":[21.45237159729004,
		610.1551513671875,
		27.051389694213868]
	},
	{
		"bufferView":9,
		"type":"VEC3",
		"componentType":5126,
		"count":180,
		"byteOffset":12,
		"min":[-0.9832740426063538,
		-0.9873343706130981,
		-0.9625023007392883],
		"max":[0.9832740426063538,
		0.9865115284919739,
		0.9625023007392883]
	},
	{
		"bufferView":9,
		"type":"VEC2",
		"componentType":5126,
		"count":180,
		"byteOffset":24,
		"min":[0.0,
		0.0],
		"max":[1.0,
		1.0]
	},
	{
		"bufferView":10,
		"type":"SCALAR",
		"componentType":5123,
		"count":2448,
		"byteOffset":0,
		"min":[0],
		"max":[711]
	},
	{
		"bufferView":11,
		"type":"VEC3",
		"componentType":5126,
		"count":712,
		"byteOffset":0,
		"min":[-762.2688598632813,
		287.50604248046877,
		-389.7555236816406],
		"max":[-748.7767333984375,
		459.71099853515627,
		955.59375]
	},
	{
		"bufferView":11,
		"type":"VEC3",
		"componentType":5126,
		"count":712,
		"byteOffset":12,
		"min":[-0.9711095094680786,
		-0.9821428060531616,
		-0.9827170968055725],
		"max":[0.9711095094680786,
		0.9821426272392273,
		0.9827160835266113]
	},
	{
		"bufferView":11,
		"type":"VEC2",
		"componentType":5126,
		"count":712,
		"byteOffset":24,
		"min":[0.0,
		0.0],
		"max":[1.0,
		1.0]
	},
	{
		"bufferView":12,
		"type":"SCALAR",
		"componentType":5123,
		"count":192,
		"byteOffset":0,
		"min":[0],
		"max":[79]
	},
	{
		"bufferView":13,
		"type":"VEC3",
		"componentType":5126,
		"count":80,
		"byteOffset":0,
		"min":[-762.9065551757813,
		301.6539306640625,
		-379.0520935058594],
		"max":[-101.92532348632813,
		459.3957214355469,
		944.8903198242188]
	},
	{
		"bufferView":13,
		"type":"VEC3",
		"componentType":5126,
		"count":80,
		"byteOffset":12,
		"min":[0.0,
		-0.9962140917778015,
		-0.9962140917778015],
		"max":[0.0,
		0.9962140917778015,
		0.9962140917778015]
	},
	{
		"bufferView":13,
		"type":"VEC2",
		"componentType":5126,
		"count":80,
		"byteOffset":24,
		"min":[0.018267598003149034,
		0.0],
		"max":[0.9803820252418518,
		1.0]
	},
	{
		"bufferView":14,
		"type":"SCALAR",
		"componentType":5123,
		"count":1440,
		"byteOffset":0,
		"min":[0],
		"max":[395]
	},
	{
		"bufferView":15,
		"type":"VEC3",
		"componentType":5126,
		"count":396,
		"byteOffset":0,
		"min":[-762.9065551757813,
		255.52484130859376,
		-428.92254638671877],
		"max":[-101.92532348632813,
		505.52484130859377,
		994.7607421875]
	},
	{
		"bufferView":15,
		"type":"VEC3",
		"componentType":5126,
		"count":396,
		"byteOffset":12,
		"min":[-1.0,
		-0.988659679889679,
		-0.9868636131286621],
		"max":[1.0,
		0.9903184771537781,
		0.9868636131286621]
	},
	{
		"bufferView":15,
		"type":"VEC2",
		"componentType":5126,
		"count":396,
		"byteOffset":24,
		"min":[0.0,
		0.0],
		"max":[1.0,
		1.0]
	},
	{
		"bufferView":16,
		"type":"SCALAR",
		"componentType":5123,
		"count":2448,
		"byteOffset":0,
		"min":[0],
		"max":[711]
	},
	{
		"bufferView":17,
		"type":"VEC3",
		"componentType":5126,
		"count":712,
		"byteOffset":0,
		"min":[-115.79833221435547,
		287.50604248046877,
		-389.7555236816406],
		"max":[-102.30624389648438,
		459.71099853515627,
		955.59375]
	},
	{
		"bufferView":17,
		"type":"VEC3",
		"componentType":5126,
		"count":712,
		"byteOffset":12,
		"min":[-0.9711098670959473,
		-0.9821426272392273,
		-0.9827168583869934],
		"max":[0.9711101055145264,
		0.9821427464485169,
		0.9827159643173218]
	},
	{
		"bufferView":17,
		"type":"VEC2",
		"componentType":5126,
		"count":712,
		"byteOffset":24,
		"min":[0.0,
		0.0],
		"max":[1.0,
		1.0]
	},
	{
		"bufferView":18,
		"type":"SCALAR",
		"componentType":5123,
		"count":16296,
		"byteOffset":0,
		"min":[0],
		"max":[4233]
	},
	{
		"bufferView":19,
		"type":"VEC3",
		"componentType":5126,
		"count":4234,
		"byteOffset":0,
		"min":[-1991.1109619140626,
		-1042.2242431640626,
		-487.80694580078127],
		"max":[2037.2025146484376,
		442.4482116699219,
		461.9255065917969]
	},
	{
		"bufferView":19,
		"type":"VEC3",
		"componentType":5126,
		"count":4234,
		"byteOffset":12,
		"min":[-1.0,
		-1.0,
		-1.0],
		"max":[1.0,
		1.0,
		1.0]
	},
	{
		"bufferView":19,
		"type":"VEC2",
		"componentType":5126,
		"count":4234,
		"byteOffset":24,
		"min":[0.0,
		0.0],
		"max":[1.0,
		1.0]
	},
	{
		"bufferView":20,
		"type":"SCALAR",
		"componentType":5123,
		"count":24,
		"byteOffset":0,
		"min":[0],
		"max":[15]
	},
	{
		"bufferView":21,
		"type":"VEC3",
		"componentType":5126,
		"count":16,
		"byteOffset":0,
		"min":[1575.4434814453126,
		-100.6043930053711,
		-377.6349792480469],
		"max":[1730.9215087890626,
		-0.6043918132781982,
		363.9166259765625]
	},
	{
		"bufferView":21,
		"type":"VEC3",
		"componentType":5126,
		"count":16,
		"byteOffset":12,
		"min":[-1.0,
		0.0,
		-1.0],
		"max":[0.0,
		1.0,
		1.0]
	},
	{
		"bufferView":21,
		"type":"VEC2",
		"componentType":5126,
		"count":16,
		"byteOffset":24,
		"min":[0.0,
		0.06570008397102356],
		"max":[0.9895197153091431,
		0.9342999458312988]
	},
	{
		"bufferView":22,
		"type":"SCALAR",
		"componentType":5123,
		"count":6,
		"byteOffset":0,
		"min":[0],
		"max":[3]
	},
	{
		"bufferView":23,
		"type":"VEC3",
		"componentType":5126,
		"count":4,
		"byteOffset":0,
		"min":[-1363.2520751953126,
		-100.6043930053711,
		-377.6349792480469],
		"max":[-1363.2520751953126,
		-0.6043918132781982,
		363.9166259765625]
	},
	{
		"bufferView":23,
		"type":"VEC3",
		"componentType":5126,
		"count":4,
		"byteOffset":12,
		"min":[1.0,
		0.0,
		0.0],
		"max":[1.0,
		0.0,
		0.0]
	},
	{
		"bufferView":23,
		"type":"VEC2",
		"componentType":5126,
		"count":4,
		"byteOffset":24,
		"min":[0.0,
		0.9342999458312988],
		"max":[0.9895197153091431,
		0.9342999458312988]
	},
	{
		"bufferView":24,
		"type":"SCALAR",
		"componentType":5123,
		"count":18,
		"byteOffset":0,
		"min":[0],
		"max":[11]
	},
	{
		"bufferView":25,
		"type":"VEC3",
		"componentType":5126,
		"count":12,
		"byteOffset":0,
		"min":[-1518.7301025390626,
		-100.6043930053711,
		-377.6349792480469],
		"max":[-1363.2520751953126,
		-0.6043918132781982,
		363.9166259765625]
	},
	{
		"bufferView":25,
		"type":"VEC3",
		"componentType":5126,
		"count":12,
		"byteOffset":12,
		"min":[-1.0,
		0.0,
		-1.0],
		"max":[0.0,
		1.0,
		0.0]
	},
	{
		"bufferView":25,
		"type":"VEC2",
		"componentType":5126,
		"count":12,
		"byteOffset":24,
		"min":[0.0,
		0.06570008397102356],
		"max":[0.9895197153091431,
		0.9342999458312988]
	},
	{
		"bufferView":26,
		"type":"SCALAR",
		"componentType":5123,
		"count":156,
		"byteOffset":0,
		"min":[0],
		"max":[101]
	},
	{
		"bufferView":27,
		"type":"VEC3",
		"componentType":5126,
		"count":102,
		"byteOffset":0,
		"min":[-1381.9456787109376,
		-106.3358383178711,
		-482.80694580078127],
		"max":[1594.1370849609376,
		-2.862123966217041,
		456.9255065917969]
	},
	{
		"bufferView":27,
		"type":"VEC3",
		"componentType":5126,
		"count":102,
		"byteOffset":12,
		"min":[-1.0,
		0.0,
		-1.0],
		"max":[1.0,
		1.0,
		1.0]
	},
	{
		"bufferView":27,
		"type":"VEC2",
		"componentType":5126,
		"count":102,
		"byteOffset":24,
		"min":[0.0,
		0.05077817291021347],
		"max":[1.0,
		0.9492218494415283]
	}],
	"bufferViews":[{
		"buffer":0,
		"byteOffset":0,
		"byteLength":7344,
		"target":34963
	},
	{
		"buffer":0,
		"byteOffset":7344,
		"byteLength":31872,
		"target":34962,
		"byteStride":32
	},
	{
		"buffer":1,
		"byteOffset":0,
		"byteLength":1224,
		"target":34963
	},
	{
		"buffer":1,
		"byteOffset":1224,
		"byteLength":5760,
		"target":34962,
		"byteStride":32
	},
	{
		"buffer":2,
		"byteOffset":0,
		"byteLength":1224,
		"target":34963
	},
	{
		"buffer":2,
		"byteOffset":1224,
		"byteLength":5760,
		"target":34962,
		"byteStride":32
	},
	{
		"buffer":3,
		"byteOffset":0,
		"byteLength":1224,
		"target":34963
	},
	{
		"buffer":3,
		"byteOffset":1224,
		"byteLength":5312,
		"target":34962,
		"byteStride":32
	},
	{
		"buffer":4,
		"byteOffset":0,
		"byteLength":1224,
		"target":34963
	},
	{
		"buffer":4,
		"byteOffset":1224,
		"byteLength":5760,
		"target":34962,
		"byteStride":32
	},
	{
		"buffer":5,
		"byteOffset":0,
		"byteLength":4896,
		"target":34963
	},
	{
		"buffer":5,
		"byteOffset":4896,
		"byteLength":22784,
		"target":34962,
		"byteStride":32
	},
	{
		"buffer":6,
		"byteOffset":0,
		"byteLength":384,
		"target":34963
	},
	{
		"buffer":6,
		"byteOffset":384,
		"byteLength":2560,
		"target":34962,
		"byteStride":32
	},
	{
		"buffer":7,
		"byteOffset":0,
		"byteLength":2880,
		"target":34963
	},
	{
		"buffer":7,
		"byteOffset":2880,
		"byteLength":12672,
		"target":34962,
		"byteStride":32
	},
	{
		"buffer":8,
		"byteOffset":0,
		"byteLength":4896,
		"target":34963
	},
	{
		"buffer":8,
		"byteOffset":4896,
		"byteLength":22784,
		"target":34962,
		"byteStride":32
	},
	{
		"buffer":9,
		"byteOffset":0,
		"byteLength":32592,
		"target":34963
	},
	{
		"buffer":9,
		"byteOffset":32592,
		"byteLength":135488,
		"target":34962,
		"byteStride":32
	},
	{
		"buffer":10,
		"byteOffset":0,
		"byteLength":48,
		"target":34963
	},
	{
		"buffer":10,
		"byteOffset":48,
		"byteLength":512,
		"target":34962,
		"byteStride":32
	},
	{
		"buffer":11,
		"byteOffset":0,
		"byteLength":12,
		"target":34963
	},
	{
		"buffer":11,
		"byteOffset":12,
		"byteLength":128,
		"target":34962,
		"byteStride":32
	},
	{
		"buffer":12,
		"byteOffset":0,
		"byteLength":36,
		"target":34963
	},
	{
		"buffer":12,
		"byteOffset":36,
		"byteLength":384,
		"target":34962,
		"byteStride":32
	},
	{
		"buffer":13,
		"byteOffset":0,
		"byteLength":312,
		"target":34963
	},
	{
		"buffer":13,
		"byteOffset":312,
		"byteLength":3264,
		"target":34962,
		"byteStride":32
	}],
	"buffers":[{
		"uri":"data:application/octet-stream;base64,",
		"byteLength":39216
	},
	{
		"uri":"data:application/octet-stream;base64,",
		"byteLength":6984
	},
	{
		"uri":"data:application/octet-stream;base64,",
		"byteLength":6984
	},
	{
		"uri":"data:application/octet-stream;base64,",
		"byteLength":6536
	},
	{
		"uri":"data:application/octet-stream;base64,",
		"byteLength":6984
	},
	{
		"uri":"data:application/octet-stream;base64,",
		"byteLength":27680
	},
	{
		"uri":"data:application/octet-stream;base64,",
		"byteLength":2944
	},
	{
		"uri":"data:application/octet-stream;base64,",
		"byteLength":15552
	},
	{
		"uri":"data:application/octet-stream;base64,",
		"byteLength":27680
	},
	{
		"uri":"data:application/octet-stream;base64,",
		"byteLength":168080
	},
	{
		"uri":"data:application/octet-stream;base64,",
		"byteLength":560
	},
	{
		"uri":"data:application/octet-stream;base64,",
		"byteLength":140
	},
	{
		"uri":"data:application/octet-stream;base64,",
		"byteLength":420
	},
	{
		"uri":"data:application/octet-stream;base64,",
		"byteLength":3576
	}],
	"materials":[{
		"pbrMetallicRoughness":{
			"baseColorFactor":[0.8,
			0.8,
			0.8,
			1.0],
			"metallicFactor":0.0,
			"roughnessFactor":0.5
		},
		"emissiveFactor":[0.0,
		0.0,
		0.0],
		"alphaMode":"OPAQUE",
		"doubleSided":false,
		"name":"Wool"
	},
	{
		"pbrMetallicRoughness":{
			"baseColorFactor":[0.25,
			0.25,
			0.25,
			1.0],
			"metallicFactor":0.0,
			"roughnessFactor":0.5
		},
		"emissiveFactor":[0.0,
		0.0,
		0.0],
		"alphaMode":"OPAQUE",
		"doubleSided":false,
		"name":"Mat"
	},
	{
		"pbrMetallicRoughness":{
			"baseColorFactor":[0.4,
			0.4,
			0.4,
			1.0],
			"metallicFactor":0.0,
			"roughnessFactor":0.5
		},
		"emissiveFactor":[0.0,
		0.0,
		0.0],
		"alphaMode":"OPAQUE",
		"doubleSided":false,
		"name":"Mat.1"
	},
	{
		"pbrMetallicRoughness":{
			"baseColorFactor":[0.32,
			0.18666666666666655,
			0.0,
			1.0],
			"metallicFactor":0.0,
			"roughnessFactor":0.5
		},
		"emissiveFactor":[0.0,
		0.0,
		0.0],
		"alphaMode":"OPAQUE",
		"doubleSided":false,
		"name":"Mat.2"
	},
	{
		"pbrMetallicRoughness":{
			"baseColorFactor":[0.47000000000000005,
			0.3427083333333333,
			0.16450000000000007,
			1.0],
			"metallicFactor":0.0,
			"roughnessFactor":0.5
		},
		"emissiveFactor":[0.0,
		0.0,
		0.0],
		"alphaMode":"OPAQUE",
		"doubleSided":false,
		"name":"Mat.3"
	}]
}